<svg version="1.1" id="Layer_1" xmlns="http://www.w3.org/2000/svg" xmlns:xlink="http://www.w3.org/1999/xlink" x="0px" y="0px"
	 width="100%" viewBox="0 0 512 512" enable-background="new 0 0 512 512" xml:space="preserve">
<path fill="#1F6AD4" opacity="1.000000" stroke="none" 
	d="
M513.000000,180.000000 
	C513.000000,228.687561 513.000000,277.375122 512.674805,326.665955 
	C511.656860,328.728546 510.780457,330.129883 510.298615,331.655823 
	C500.829193,361.644989 487.499481,389.542419 468.386261,414.810791 
	C455.252625,432.173920 440.481812,447.771759 423.825867,461.526031 
	C396.582306,484.023376 365.827179,500.175385 331.846649,510.095123 
	C330.097504,510.605743 328.609558,512.011169 327.000000,513.000000 
	C277.979095,513.000000 228.958206,513.000000 179.351990,512.667114 
	C177.874695,511.644348 177.082672,510.694916 176.074524,510.306610 
	C169.556717,507.796234 162.955399,505.501465 156.449066,502.962738 
	C136.961441,495.358795 118.781464,485.192383 101.888992,473.008942 
	C87.208626,462.421051 73.123528,450.880707 61.477924,436.860199 
	C52.032410,425.488403 42.535622,414.067566 34.191254,401.894135 
	C21.432529,383.280731 12.080695,362.839783 4.875712,341.426056 
	C4.197657,339.410858 2.320461,337.799072 1.000003,336.000000 
	C1.000000,287.312439 1.000000,238.624878 1.329538,189.356674 
	C2.815505,186.652084 4.386660,184.652298 5.065380,182.385330 
	C13.546538,154.057785 26.359476,127.806702 43.577553,103.841698 
	C54.741177,88.303589 67.568977,74.192139 81.912163,61.345692 
	C97.261406,47.598175 113.600296,35.272724 132.003662,26.270857 
	C148.687866,18.109901 166.296249,11.843749 183.449768,4.629520 
	C185.454132,3.786544 187.157227,2.227222 189.000000,0.999997 
	C238.020889,1.000000 287.041779,1.000000 336.639008,1.325788 
	C338.626801,2.753166 339.885132,4.212331 341.476501,4.893894 
	C348.042603,7.706075 354.706512,10.290481 361.340240,12.944094 
	C388.051788,23.629139 411.973846,38.979752 433.280762,58.064125 
	C450.635529,73.608635 466.106903,90.957268 478.742401,110.820724 
	C491.773346,131.305771 502.596405,152.696335 510.031189,175.811279 
	C510.530975,177.365067 511.988129,178.610931 513.000000,180.000000 
M447.195557,418.692444 
	C454.153168,409.393219 461.766876,400.506775 467.931732,390.708740 
	C480.735596,370.359039 490.627014,348.621094 497.133759,325.341980 
	C503.577515,302.288177 507.334320,278.793121 506.698273,254.985977 
	C506.248230,238.141647 504.063110,221.162170 500.781219,204.614166 
	C494.639374,173.645645 482.624786,144.887314 464.567810,118.776169 
	C450.327423,98.183960 434.706024,79.092888 414.583466,63.641869 
	C399.198639,51.828693 383.503387,40.877831 366.012146,32.469334 
	C330.170990,15.239558 292.562866,6.869814 252.667435,7.807600 
	C232.580627,8.279761 212.959076,10.453463 193.532669,15.552431 
	C170.961121,21.476923 149.749573,30.531925 129.702591,42.289742 
	C110.236076,53.707108 92.388466,67.455185 76.914444,83.839371 
	C59.854698,101.902542 45.471676,122.030373 34.235954,144.353073 
	C23.072830,166.531540 15.534037,189.855804 11.009770,214.191757 
	C7.320671,234.035416 7.070740,254.084320 8.035321,274.170227 
	C8.306071,279.808167 8.369225,285.520660 9.366898,291.047455 
	C12.827627,310.218689 16.944187,329.221405 24.249342,347.419037 
	C36.026905,376.757812 51.820801,403.539398 73.912636,426.324280 
	C81.179863,433.819519 88.801750,440.994812 96.560104,447.984924 
	C112.131943,462.014771 129.755157,473.161316 148.703445,481.840942 
	C161.797226,487.838776 175.665405,492.202728 189.326508,496.891876 
	C209.323288,503.755798 230.209320,506.122284 251.132599,506.746948 
	C264.335541,507.141113 277.668549,505.565979 290.844727,504.029572 
	C332.433685,499.180084 369.963318,483.355316 403.716278,459.157959 
	C419.586121,447.780884 434.726501,435.036835 447.195557,418.692444 
z"/>
<path fill="#236DD8" opacity="1.000000" stroke="none" 
	d="
M106.000000,0.999999 
	C118.020897,1.000000 130.041794,1.000000 142.452942,1.342708 
	C141.542618,2.850942 140.402359,4.309043 138.910950,5.126310 
	C134.693726,7.437286 130.261154,9.354903 126.040596,11.660293 
	C108.673866,21.146479 91.805359,31.468262 77.240990,44.968254 
	C65.948761,55.435234 54.548607,65.950317 44.536369,77.596016 
	C28.585754,96.148918 15.451506,116.742577 4.938948,138.933853 
	C4.173903,140.548813 2.338019,141.656479 1.000000,143.000000 
	C1.000000,130.979111 1.000000,118.958214 1.369281,106.698448 
	C2.081982,106.111542 2.667832,105.804031 2.733761,105.409607 
	C5.069834,91.434387 10.228299,78.491707 16.965666,66.110931 
	C24.447887,52.361401 34.301510,40.358944 46.277420,30.534803 
	C63.357994,16.523180 82.719208,6.640474 104.813828,2.860127 
	C105.301041,2.776766 105.608620,1.643504 106.000000,0.999999 
z"/>
<path fill="#216BD5" opacity="1.000000" stroke="none" 
	d="
M513.000000,179.531342 
	C511.988129,178.610931 510.530975,177.365067 510.031189,175.811279 
	C502.596405,152.696335 491.773346,131.305771 478.742401,110.820724 
	C466.106903,90.957268 450.635529,73.608635 433.280762,58.064125 
	C411.973846,38.979752 388.051788,23.629139 361.340240,12.944094 
	C354.706512,10.290481 348.042603,7.706075 341.476501,4.893894 
	C339.885132,4.212331 338.626801,2.753166 337.107666,1.325788 
	C353.020905,1.000000 369.041779,1.000000 385.610291,1.334621 
	C387.589752,2.991006 388.858734,4.571833 390.480560,5.591440 
	C399.324371,11.151407 408.578247,16.118343 417.075928,22.155136 
	C428.274628,30.110722 439.502960,38.207855 449.653595,47.417881 
	C471.942596,67.641525 490.319336,91.126694 504.884491,117.553902 
	C507.127625,121.623909 510.272278,125.197060 513.000000,129.000000 
	C513.000000,145.687561 513.000000,162.375122 513.000000,179.531342 
z"/>
<path fill="#216BD5" opacity="1.000000" stroke="none" 
	d="
M327.468658,513.000000 
	C328.609558,512.011169 330.097504,510.605743 331.846649,510.095123 
	C365.827179,500.175385 396.582306,484.023376 423.825867,461.526031 
	C440.481812,447.771759 455.252625,432.173920 468.386261,414.810791 
	C487.499481,389.542419 500.829193,361.644989 510.298615,331.655823 
	C510.780457,330.129883 511.656860,328.728546 512.674805,327.134583 
	C513.000000,343.020905 513.000000,359.041779 512.673218,375.643005 
	C509.961731,380.533264 507.551239,384.829132 505.196533,389.155334 
	C488.737000,419.395844 467.960266,446.186157 441.817902,468.721405 
	C423.974396,484.102905 404.809418,497.477295 383.583160,507.828613 
	C380.861969,509.155640 378.518463,511.257202 376.000000,513.000000 
	C359.979095,513.000000 343.958221,513.000000 327.468658,513.000000 
z"/>
<path fill="#236ED9" opacity="1.000000" stroke="none" 
	d="
M376.468658,513.000000 
	C378.518463,511.257202 380.861969,509.155640 383.583160,507.828613 
	C404.809418,497.477295 423.974396,484.102905 441.817902,468.721405 
	C467.960266,446.186157 488.737000,419.395844 505.196533,389.155334 
	C507.551239,384.829132 509.961731,380.533264 512.673218,376.111694 
	C513.000000,386.354218 513.000000,396.708466 512.631897,407.298096 
	C511.919891,407.881622 511.333527,408.188873 511.267090,408.583618 
	C508.915863,422.554565 503.776794,435.504791 497.033997,447.885529 
	C489.546570,461.633514 479.698730,473.641998 467.719299,483.464569 
	C450.634979,497.472870 431.276184,507.365082 409.176849,511.138977 
	C408.692719,511.221649 408.388245,512.356140 408.000000,513.000000 
	C397.645782,513.000000 387.291534,513.000000 376.468658,513.000000 
z"/>
<path fill="#216BD5" opacity="1.000000" stroke="none" 
	d="
M1.000000,143.468658 
	C2.338019,141.656479 4.173903,140.548813 4.938948,138.933853 
	C15.451506,116.742577 28.585754,96.148918 44.536369,77.596016 
	C54.548607,65.950317 65.948761,55.435234 77.240990,44.968254 
	C91.805359,31.468262 108.673866,21.146479 126.040596,11.660293 
	C130.261154,9.354903 134.693726,7.437286 138.910950,5.126310 
	C140.402359,4.309043 141.542618,2.850942 142.921600,1.342708 
	C158.020889,1.000000 173.041794,1.000000 188.531342,0.999997 
	C187.157227,2.227222 185.454132,3.786544 183.449768,4.629520 
	C166.296249,11.843749 148.687866,18.109901 132.003662,26.270857 
	C113.600296,35.272724 97.261406,47.598175 81.912163,61.345692 
	C67.568977,74.192139 54.741177,88.303589 43.577553,103.841698 
	C26.359476,127.806702 13.546538,154.057785 5.065380,182.385330 
	C4.386660,184.652298 2.815505,186.652084 1.329538,188.888016 
	C1.000000,173.979111 1.000000,158.958206 1.000000,143.468658 
z"/>
<path fill="#000000" opacity="1.000000" stroke="none" 
	d="
M408.000000,1.000000 
	C442.926941,1.000000 477.853882,1.000000 513.000000,1.000000 
	C513.000000,35.687252 513.000000,70.374969 512.631836,105.764587 
	C511.919830,106.118446 511.381714,105.827248 511.260742,105.413963 
	C508.801514,97.010986 507.118195,88.296776 503.828064,80.237427 
	C495.108032,58.877403 481.473724,41.032509 463.041809,27.017740 
	C446.971985,14.799008 429.141663,6.453539 409.177338,2.861758 
	C408.689056,2.773914 408.388245,1.643926 408.000000,1.000000 
z"/>
<path fill="#000000" opacity="1.000000" stroke="none" 
	d="
M106.000015,513.000000 
	C71.073059,513.000000 36.146114,513.000000 1.000000,513.000000 
	C1.000000,478.312744 1.000000,443.625031 1.368110,408.235382 
	C2.080114,407.881500 2.666401,408.188721 2.732857,408.583466 
	C5.084919,422.554047 10.222981,435.504608 16.965605,447.885376 
	C24.453016,461.633728 34.301342,473.642426 46.280766,483.465027 
	C63.364861,497.473206 82.723763,507.365509 104.823143,511.139099 
	C105.307236,511.221741 105.611740,512.356140 106.000015,513.000000 
z"/>
<path fill="#000000" opacity="1.000000" stroke="none" 
	d="
M105.531342,0.999999 
	C105.608620,1.643504 105.301041,2.776766 104.813828,2.860127 
	C82.719208,6.640474 63.357994,16.523180 46.277420,30.534803 
	C34.301510,40.358944 24.447887,52.361401 16.965666,66.110931 
	C10.228299,78.491707 5.069834,91.434387 2.733761,105.409607 
	C2.667832,105.804031 2.081982,106.111542 1.369281,106.229790 
	C1.000000,71.073059 1.000000,36.146111 1.000000,1.000000 
	C35.687252,1.000000 70.374969,1.000000 105.531342,0.999999 
z"/>
<path fill="#000000" opacity="1.000000" stroke="none" 
	d="
M408.468628,513.000000 
	C408.388245,512.356140 408.692719,511.221649 409.176849,511.138977 
	C431.276184,507.365082 450.634979,497.472870 467.719299,483.464569 
	C479.698730,473.641998 489.546570,461.633514 497.033997,447.885529 
	C503.776794,435.504791 508.915863,422.554565 511.267090,408.583618 
	C511.333527,408.188873 511.919891,407.881622 512.631897,407.766785 
	C513.000000,442.926941 513.000000,477.853882 513.000000,513.000000 
	C478.312744,513.000000 443.625031,513.000000 408.468628,513.000000 
z"/>
<path fill="#216BD5" opacity="1.000000" stroke="none" 
	d="
M1.000003,336.468658 
	C2.320461,337.799072 4.197657,339.410858 4.875712,341.426056 
	C12.080695,362.839783 21.432529,383.280731 34.191254,401.894135 
	C42.535622,414.067566 52.032410,425.488403 61.477924,436.860199 
	C73.123528,450.880707 87.208626,462.421051 101.888992,473.008942 
	C118.781464,485.192383 136.961441,495.358795 156.449066,502.962738 
	C162.955399,505.501465 169.556717,507.796234 176.074524,510.306610 
	C177.082672,510.694916 177.874695,511.644348 178.883331,512.667114 
	C166.645767,513.000000 154.291550,513.000000 141.356628,512.672607 
	C138.368713,510.988739 136.004028,509.549377 133.547592,508.288788 
	C112.065758,497.264862 91.919586,484.318146 73.681259,468.358887 
	C56.349884,453.193207 40.606163,436.578857 27.652411,417.609100 
	C19.449215,405.596191 12.852347,392.490662 5.406978,379.951233 
	C4.299571,378.086121 2.486566,376.639984 0.999997,375.000000 
	C1.000000,362.312439 1.000000,349.624878 1.000003,336.468658 
z"/>
<path fill="#236ED9" opacity="1.000000" stroke="none" 
	d="
M407.531433,1.000000 
	C408.388245,1.643926 408.689056,2.773914 409.177338,2.861758 
	C429.141663,6.453539 446.971985,14.799008 463.041809,27.017740 
	C481.473724,41.032509 495.108032,58.877403 503.828064,80.237427 
	C507.118195,88.296776 508.801514,97.010986 511.260742,105.413963 
	C511.381714,105.827248 511.919830,106.118446 512.631836,106.233246 
	C513.000000,113.354248 513.000000,120.708496 513.000000,128.531372 
	C510.272278,125.197060 507.127625,121.623909 504.884491,117.553902 
	C490.319336,91.126694 471.942596,67.641525 449.653595,47.417881 
	C439.502960,38.207855 428.274628,30.110722 417.075928,22.155136 
	C408.578247,16.118343 399.324371,11.151407 390.480560,5.591440 
	C388.858734,4.571833 387.589752,2.991006 386.078949,1.334621 
	C393.020966,1.000000 400.041901,1.000000 407.531433,1.000000 
z"/>
<path fill="#236DD8" opacity="1.000000" stroke="none" 
	d="
M0.999997,375.468658 
	C2.486566,376.639984 4.299571,378.086121 5.406978,379.951233 
	C12.852347,392.490662 19.449215,405.596191 27.652411,417.609100 
	C40.606163,436.578857 56.349884,453.193207 73.681259,468.358887 
	C91.919586,484.318146 112.065758,497.264862 133.547592,508.288788 
	C136.004028,509.549377 138.368713,510.988739 140.887970,512.672607 
	C131.645767,513.000000 122.291542,513.000000 112.433556,512.646240 
	C110.722717,511.043213 109.671219,509.578369 108.284576,508.578094 
	C94.048157,498.308685 78.840080,489.163879 65.686966,477.664825 
	C43.398849,458.179596 23.832724,436.036835 8.539062,410.392731 
	C6.942340,407.715363 3.556002,406.105286 0.999997,404.000000 
	C1.000000,394.645782 1.000000,385.291534 0.999997,375.468658 
z"/>
<path fill="#236ED9" opacity="1.000000" stroke="none" 
	d="
M0.999997,404.399994 
	C3.556002,406.105286 6.942340,407.715363 8.539062,410.392731 
	C23.832724,436.036835 43.398849,458.179596 65.686966,477.664825 
	C78.840080,489.163879 94.048157,498.308685 108.284576,508.578094 
	C109.671219,509.578369 110.722717,511.043213 111.964897,512.646240 
	C110.285645,513.000000 108.571281,513.000000 106.428474,513.000000 
	C105.611740,512.356140 105.307236,511.221741 104.823143,511.139099 
	C82.723763,507.365509 63.364861,497.473206 46.280766,483.465027 
	C34.301342,473.642426 24.453016,461.633728 16.965605,447.885376 
	C10.222981,435.504608 5.084919,422.554047 2.732857,408.583466 
	C2.666401,408.188721 2.080114,407.881500 1.368110,407.766724 
	C1.000000,406.933319 1.000000,405.866669 0.999997,404.399994 
z"/>
<path fill="#1D69D2" opacity="1.000000" stroke="none" 
	d="
M447.004211,418.990967 
	C434.726501,435.036835 419.586121,447.780884 403.716278,459.157959 
	C369.963318,483.355316 332.433685,499.180084 290.844727,504.029572 
	C277.668549,505.565979 264.335541,507.141113 251.132599,506.746948 
	C230.209320,506.122284 209.323288,503.755798 189.326508,496.891876 
	C175.665405,492.202728 161.797226,487.838776 148.703445,481.840942 
	C129.755157,473.161316 112.131943,462.014771 96.560104,447.984924 
	C88.801750,440.994812 81.179863,433.819519 73.912636,426.324280 
	C51.820801,403.539398 36.026905,376.757812 24.249342,347.419037 
	C16.944187,329.221405 12.827627,310.218689 9.366898,291.047455 
	C8.369225,285.520660 8.306071,279.808167 8.035321,274.170227 
	C7.070740,254.084320 7.320671,234.035416 11.009770,214.191757 
	C15.534037,189.855804 23.072830,166.531540 34.235954,144.353073 
	C45.471676,122.030373 59.854698,101.902542 76.914444,83.839371 
	C92.388466,67.455185 110.236076,53.707108 129.702591,42.289742 
	C149.749573,30.531925 170.961121,21.476923 193.532669,15.552431 
	C212.959076,10.453463 232.580627,8.279761 252.667435,7.807600 
	C292.562866,6.869814 330.170990,15.239558 366.012146,32.469334 
	C383.503387,40.877831 399.198639,51.828693 414.583466,63.641869 
	C434.706024,79.092888 450.327423,98.183960 464.567810,118.776169 
	C482.624786,144.887314 494.639374,173.645645 500.781219,204.614166 
	C504.063110,221.162170 506.248230,238.141647 506.698273,254.985977 
	C507.334320,278.793121 503.577515,302.288177 497.133759,325.341980 
	C490.627014,348.621094 480.735596,370.359039 467.931732,390.708740 
	C461.766876,400.506775 454.153168,409.393219 447.004211,418.990967 
M86.116753,96.592987 
	C84.072266,99.202492 82.204666,101.976578 79.954628,104.394829 
	C65.181488,120.272514 54.339123,138.669830 44.928017,158.060699 
	C31.950975,184.798904 25.349319,213.233536 23.201571,242.624146 
	C21.856119,261.035797 22.608688,279.587769 26.269272,297.805847 
	C32.416916,328.401581 42.905724,357.303040 60.035316,383.638763 
	C72.274231,402.455322 86.839203,419.218445 103.646759,433.995514 
	C110.370880,439.907318 117.375183,445.739105 125.030853,450.299805 
	C138.281235,458.193390 151.891129,465.585388 165.802704,472.242126 
	C184.377106,481.130035 204.261734,486.521423 224.631226,488.735321 
	C240.229248,490.430634 256.110138,489.338928 271.834290,490.114014 
	C285.565826,490.790894 298.600281,487.294312 311.721741,484.471558 
	C332.171753,480.072296 351.401825,472.234131 369.719971,462.146545 
	C391.015259,450.419495 410.006775,435.751862 426.671997,418.028534 
	C437.756866,406.239899 447.580048,393.565826 456.237762,379.856171 
	C466.002258,364.393951 473.276031,347.909546 479.098297,330.663696 
	C485.194550,312.606354 489.129333,294.052307 490.524902,275.120483 
	C491.464630,262.372681 491.730865,249.386917 490.400299,236.706802 
	C488.655029,220.074753 485.473022,203.630005 480.364349,187.496872 
	C473.467712,165.717422 463.985626,145.345428 451.257782,126.485802 
	C437.033356,105.408676 420.112610,86.591194 399.669952,71.506813 
	C387.038269,62.186058 373.199188,54.377960 359.412659,46.778790 
	C343.900909,38.228683 327.126068,32.445950 309.766144,29.063841 
	C296.763214,26.530579 283.510895,24.674952 270.294159,24.004122 
	C255.912109,23.274141 241.330627,23.218647 227.039459,24.757666 
	C208.174362,26.789251 189.949753,32.136391 172.134048,38.972893 
	C156.035217,45.150574 140.568207,52.515320 126.875092,62.853996 
	C113.001884,73.328651 100.052483,85.026848 86.116753,96.592987 
z"/>
<path fill="#1C67D0" opacity="1.000000" stroke="none" 
	d="
M86.407600,96.391052 
	C100.052483,85.026848 113.001884,73.328651 126.875092,62.853996 
	C140.568207,52.515320 156.035217,45.150574 172.134048,38.972893 
	C189.949753,32.136391 208.174362,26.789251 227.039459,24.757666 
	C241.330627,23.218647 255.912109,23.274141 270.294159,24.004122 
	C283.510895,24.674952 296.763214,26.530579 309.766144,29.063841 
	C327.126068,32.445950 343.900909,38.228683 359.412659,46.778790 
	C373.199188,54.377960 387.038269,62.186058 399.669952,71.506813 
	C420.112610,86.591194 437.033356,105.408676 451.257782,126.485802 
	C463.985626,145.345428 473.467712,165.717422 480.364349,187.496872 
	C485.473022,203.630005 488.655029,220.074753 490.400299,236.706802 
	C491.730865,249.386917 491.464630,262.372681 490.524902,275.120483 
	C489.129333,294.052307 485.194550,312.606354 479.098297,330.663696 
	C473.276031,347.909546 466.002258,364.393951 456.237762,379.856171 
	C447.580048,393.565826 437.756866,406.239899 426.671997,418.028534 
	C410.006775,435.751862 391.015259,450.419495 369.719971,462.146545 
	C351.401825,472.234131 332.171753,480.072296 311.721741,484.471558 
	C298.600281,487.294312 285.565826,490.790894 271.834290,490.114014 
	C256.110138,489.338928 240.229248,490.430634 224.631226,488.735321 
	C204.261734,486.521423 184.377106,481.130035 165.802704,472.242126 
	C151.891129,465.585388 138.281235,458.193390 125.030853,450.299805 
	C117.375183,445.739105 110.370880,439.907318 103.646759,433.995514 
	C86.839203,419.218445 72.274231,402.455322 60.035316,383.638763 
	C42.905724,357.303040 32.416916,328.401581 26.269272,297.805847 
	C22.608688,279.587769 21.856119,261.035797 23.201571,242.624146 
	C25.349319,213.233536 31.950975,184.798904 44.928017,158.060699 
	C54.339123,138.669830 65.181488,120.272514 79.954628,104.394829 
	C82.204666,101.976578 84.072266,99.202492 86.407600,96.391052 
M137.872192,70.407715 
	C123.723671,78.474754 111.658195,89.242508 100.137100,100.520920 
	C83.390732,116.914543 70.139328,135.897629 59.441635,156.827408 
	C48.725437,177.793381 41.332214,199.810791 38.150188,222.982895 
	C36.200256,237.182678 36.410118,251.704239 36.052269,266.091309 
	C35.558784,285.931641 39.829201,305.128052 45.661903,323.877350 
	C54.918026,353.631317 70.105576,380.377533 90.567924,403.763947 
	C107.320824,422.910858 127.189865,438.616425 149.649155,450.808838 
	C173.688065,463.858704 199.080673,473.341980 226.355637,476.106934 
	C243.506531,477.845581 260.956604,478.589874 278.139008,477.558014 
	C298.914124,476.310394 319.336975,471.534393 338.426147,462.871979 
	C352.306915,456.573090 366.104004,449.836548 379.112518,441.935394 
	C394.048645,432.863403 406.458649,420.512421 418.728485,408.018921 
	C432.633087,393.860931 443.855103,377.895416 453.037567,360.533630 
	C462.623535,342.408997 469.376617,323.212097 473.680481,303.010498 
	C478.979401,278.138153 479.458466,253.156464 476.690979,228.173492 
	C474.587097,209.180679 469.492706,190.759216 461.973297,172.985199 
	C451.562561,148.376816 437.909943,125.922562 419.754913,106.350143 
	C401.014099,86.146133 379.151825,69.953445 354.332275,57.950516 
	C320.960297,41.811573 285.802765,34.372414 248.605927,35.810204 
	C230.494537,36.510277 212.848068,39.140919 195.545090,44.158520 
	C175.310425,50.026264 156.089294,58.287800 137.872192,70.407715 
z"/>
<path fill="#1B66CE" opacity="1.000000" stroke="none" 
	d="
M138.159927,70.187256 
	C156.089294,58.287800 175.310425,50.026264 195.545090,44.158520 
	C212.848068,39.140919 230.494537,36.510277 248.605927,35.810204 
	C285.802765,34.372414 320.960297,41.811573 354.332275,57.950516 
	C379.151825,69.953445 401.014099,86.146133 419.754913,106.350143 
	C437.909943,125.922562 451.562561,148.376816 461.973297,172.985199 
	C469.492706,190.759216 474.587097,209.180679 476.690979,228.173492 
	C479.458466,253.156464 478.979401,278.138153 473.680481,303.010498 
	C469.376617,323.212097 462.623535,342.408997 453.037567,360.533630 
	C443.855103,377.895416 432.633087,393.860931 418.728485,408.018921 
	C406.458649,420.512421 394.048645,432.863403 379.112518,441.935394 
	C366.104004,449.836548 352.306915,456.573090 338.426147,462.871979 
	C319.336975,471.534393 298.914124,476.310394 278.139008,477.558014 
	C260.956604,478.589874 243.506531,477.845581 226.355637,476.106934 
	C199.080673,473.341980 173.688065,463.858704 149.649155,450.808838 
	C127.189865,438.616425 107.320824,422.910858 90.567924,403.763947 
	C70.105576,380.377533 54.918026,353.631317 45.661903,323.877350 
	C39.829201,305.128052 35.558784,285.931641 36.052269,266.091309 
	C36.410118,251.704239 36.200256,237.182678 38.150188,222.982895 
	C41.332214,199.810791 48.725437,177.793381 59.441635,156.827408 
	C70.139328,135.897629 83.390732,116.914543 100.137100,100.520920 
	C111.658195,89.242508 123.723671,78.474754 138.159927,70.187256 
M51.067272,206.674423 
	C49.044849,223.302780 45.901070,239.894424 45.355270,256.571106 
	C44.919659,269.880920 47.127037,283.371948 49.099072,296.643188 
	C51.906639,315.537323 58.377003,333.436188 66.877052,350.461700 
	C75.059959,366.851959 85.037903,382.130981 97.200737,395.992737 
	C110.471985,411.117767 125.473343,424.113159 142.269653,435.117950 
	C156.118744,444.191742 170.936752,451.318512 186.588959,456.588593 
	C196.030319,459.767456 205.581299,462.995972 215.343430,464.766327 
	C233.981903,468.146423 252.718689,470.111908 271.861633,468.231628 
	C287.998413,466.646667 303.797974,463.989624 319.274567,459.369385 
	C344.606720,451.807037 367.311920,439.277863 388.287933,423.226135 
	C404.881348,410.528259 418.615234,395.218750 430.565063,378.348389 
	C440.182404,364.771057 448.003357,350.175873 454.058044,334.452637 
	C463.017548,311.185944 468.218536,287.289856 468.823792,262.532623 
	C469.220978,246.286835 467.594910,230.118362 464.286987,214.025925 
	C459.127197,188.924896 449.874939,165.578384 436.196594,144.125366 
	C426.028625,128.177994 415.102722,112.509323 400.004547,100.669861 
	C387.752075,91.061897 375.343597,81.485321 362.123413,73.321289 
	C345.531342,63.074970 327.413574,55.745415 308.234772,51.684998 
	C295.754395,49.042728 283.172180,45.990868 270.512421,45.262135 
	C238.971817,43.446575 208.437485,48.629120 178.854248,60.271969 
	C161.481232,67.109329 145.615784,76.260735 130.615967,87.061119 
	C107.758858,103.519005 89.601479,124.439194 74.969154,148.338898 
	C64.037903,166.193436 56.751869,185.697830 51.067272,206.674423 
z"/>
<path fill="#1A65CD" opacity="1.000000" stroke="none" 
	d="
M51.161983,206.271484 
	C56.751869,185.697830 64.037903,166.193436 74.969154,148.338898 
	C89.601479,124.439194 107.758858,103.519005 130.615967,87.061119 
	C145.615784,76.260735 161.481232,67.109329 178.854248,60.271969 
	C208.437485,48.629120 238.971817,43.446575 270.512421,45.262135 
	C283.172180,45.990868 295.754395,49.042728 308.234772,51.684998 
	C327.413574,55.745415 345.531342,63.074970 362.123413,73.321289 
	C375.343597,81.485321 387.752075,91.061897 400.004547,100.669861 
	C415.102722,112.509323 426.028625,128.177994 436.196594,144.125366 
	C449.874939,165.578384 459.127197,188.924896 464.286987,214.025925 
	C467.594910,230.118362 469.220978,246.286835 468.823792,262.532623 
	C468.218536,287.289856 463.017548,311.185944 454.058044,334.452637 
	C448.003357,350.175873 440.182404,364.771057 430.565063,378.348389 
	C418.615234,395.218750 404.881348,410.528259 388.287933,423.226135 
	C367.311920,439.277863 344.606720,451.807037 319.274567,459.369385 
	C303.797974,463.989624 287.998413,466.646667 271.861633,468.231628 
	C252.718689,470.111908 233.981903,468.146423 215.343430,464.766327 
	C205.581299,462.995972 196.030319,459.767456 186.588959,456.588593 
	C170.936752,451.318512 156.118744,444.191742 142.269653,435.117950 
	C125.473343,424.113159 110.471985,411.117767 97.200737,395.992737 
	C85.037903,382.130981 75.059959,366.851959 66.877052,350.461700 
	C58.377003,333.436188 51.906639,315.537323 49.099072,296.643188 
	C47.127037,283.371948 44.919659,269.880920 45.355270,256.571106 
	C45.901070,239.894424 49.044849,223.302780 51.161983,206.271484 
M150.755997,90.183754 
	C145.662338,93.904358 140.542328,97.589531 135.479935,101.352211 
	C120.390656,112.567474 107.526855,126.077042 96.649025,141.272232 
	C81.201309,162.851089 70.521095,186.704773 64.527382,212.678360 
	C58.422661,239.133011 57.445179,265.592010 62.547741,292.305847 
	C67.540756,318.446136 76.914307,342.724335 91.586166,365.031647 
	C104.153954,384.139923 119.253853,400.742126 137.596573,414.400330 
	C153.703690,426.393890 171.060455,435.915924 190.039047,442.744873 
	C205.778641,448.408325 221.850052,452.896881 238.403641,453.726868 
	C263.651459,454.992798 288.911987,454.678772 313.398956,446.256866 
	C329.140900,440.842651 344.423431,434.811798 358.845856,426.302429 
	C380.985992,413.239502 399.541962,396.219086 415.026733,376.055237 
	C430.030060,356.518188 440.724731,334.440186 447.146606,310.615540 
	C450.071320,299.765015 451.299530,288.451385 453.193329,277.330109 
	C456.448303,258.215302 454.541351,239.168091 451.144714,220.376999 
	C447.676239,201.188354 441.234985,182.881699 432.138306,165.462311 
	C423.751526,149.402237 413.456421,134.802139 401.092285,121.698555 
	C386.529327,106.264679 369.795563,93.467140 351.212280,83.212204 
	C336.734650,75.222939 321.286774,69.451126 305.351624,65.226357 
	C285.226959,59.890858 264.592560,59.305805 243.901688,60.003277 
	C226.469879,60.590889 209.414719,63.865822 193.278580,70.136528 
	C178.931229,75.712082 165.322983,83.189529 150.755997,90.183754 
z"/>
<path fill="#1864CA" opacity="1.000000" stroke="none" 
	d="
M151.072250,90.005646 
	C165.322983,83.189529 178.931229,75.712082 193.278580,70.136528 
	C209.414719,63.865822 226.469879,60.590889 243.901688,60.003277 
	C264.592560,59.305805 285.226959,59.890858 305.351624,65.226357 
	C321.286774,69.451126 336.734650,75.222939 351.212280,83.212204 
	C369.795563,93.467140 386.529327,106.264679 401.092285,121.698555 
	C413.456421,134.802139 423.751526,149.402237 432.138306,165.462311 
	C441.234985,182.881699 447.676239,201.188354 451.144714,220.376999 
	C454.541351,239.168091 456.448303,258.215302 453.193329,277.330109 
	C451.299530,288.451385 450.071320,299.765015 447.146606,310.615540 
	C440.724731,334.440186 430.030060,356.518188 415.026733,376.055237 
	C399.541962,396.219086 380.985992,413.239502 358.845856,426.302429 
	C344.423431,434.811798 329.140900,440.842651 313.398956,446.256866 
	C288.911987,454.678772 263.651459,454.992798 238.403641,453.726868 
	C221.850052,452.896881 205.778641,448.408325 190.039047,442.744873 
	C171.060455,435.915924 153.703690,426.393890 137.596573,414.400330 
	C119.253853,400.742126 104.153954,384.139923 91.586166,365.031647 
	C76.914307,342.724335 67.540756,318.446136 62.547741,292.305847 
	C57.445179,265.592010 58.422661,239.133011 64.527382,212.678360 
	C70.521095,186.704773 81.201309,162.851089 96.649025,141.272232 
	C107.526855,126.077042 120.390656,112.567474 135.479935,101.352211 
	C140.542328,97.589531 145.662338,93.904358 151.072250,90.005646 
M410.885925,183.161957 
	C408.928406,157.195938 395.759491,139.270660 371.951477,128.224182 
	C371.123566,126.836205 370.595581,125.074272 369.414276,124.126938 
	C365.006989,120.592484 360.496887,117.161263 355.825287,113.985626 
	C333.884369,99.070747 309.789429,89.768250 283.594604,85.266685 
	C261.202271,81.418556 239.189240,82.734352 217.281433,87.804123 
	C195.979492,92.733696 176.237335,101.494881 158.353012,114.030731 
	C152.673325,118.011848 148.086853,123.552597 142.469574,128.795685 
	C133.539749,132.300934 125.802345,137.502426 119.176529,144.498001 
	C110.429115,153.733566 105.982880,164.964188 102.621399,177.246582 
	C101.740593,178.183640 100.505051,178.970856 100.035820,180.081757 
	C96.672058,188.045441 92.781342,195.872803 90.338753,204.122650 
	C83.833351,226.094620 80.569725,248.461914 82.877258,271.546661 
	C84.967094,292.453674 89.958458,312.459930 98.875504,331.457886 
	C99.716354,333.249359 101.704010,334.502594 103.528183,336.668640 
	C103.712067,337.474518 103.915192,338.276581 104.077057,339.086853 
	C109.166679,364.565674 127.135231,383.022156 152.236923,387.711517 
	C159.336319,389.037811 166.741425,388.727722 174.240494,389.783569 
	C174.974686,390.430450 175.624268,391.224487 176.455551,391.702606 
	C194.620911,402.149750 213.785736,409.290253 234.753357,412.338562 
	C251.964691,414.840759 268.960602,414.545746 285.780731,411.555786 
	C303.170715,408.464539 319.688049,402.097321 335.132477,393.331268 
	C336.708832,392.436493 337.720947,390.547607 339.927124,389.013092 
	C344.249847,388.960388 348.584045,389.092163 352.893311,388.823669 
	C373.838013,387.518677 390.107574,378.191284 401.622894,360.506622 
	C407.304504,351.781128 409.730652,342.101471 411.687500,331.750641 
	C413.539795,328.079651 415.664673,324.518768 417.199554,320.719543 
	C426.339691,298.095947 430.006378,274.676666 429.225311,250.184814 
	C428.534912,228.535049 423.349304,208.205963 415.462006,188.346771 
	C414.768066,186.599533 412.602936,185.436600 410.885925,183.161957 
z"/>
<path fill="#115EC3" opacity="1.000000" stroke="none" 
	d="
M338.994934,389.120056 
	C337.720947,390.547607 336.708832,392.436493 335.132477,393.331268 
	C319.688049,402.097321 303.170715,408.464539 285.780731,411.555786 
	C268.960602,414.545746 251.964691,414.840759 234.753357,412.338562 
	C213.785736,409.290253 194.620911,402.149750 176.455551,391.702606 
	C175.624268,391.224487 174.974686,390.430450 174.512909,389.385559 
	C175.761902,388.830658 176.764572,388.767090 177.710983,388.502380 
	C186.530838,386.035522 191.698059,379.159760 190.837967,371.089783 
	C189.944702,362.708588 183.903488,356.917969 174.890030,356.131622 
	C171.250229,355.814087 167.561844,356.101654 163.900055,355.979248 
	C152.909180,355.612030 144.405457,350.921692 139.102921,341.135498 
	C135.637833,334.740417 135.954620,327.679871 135.978180,320.674042 
	C136.022385,307.524719 130.092072,301.462830 116.998154,300.613342 
	C116.698486,298.408417 116.551056,296.578430 116.079399,294.836182 
	C110.948692,275.883881 109.484016,256.717072 112.693672,237.286880 
	C114.042053,229.124252 115.556496,220.989044 117.414345,212.789734 
	C127.976410,213.058273 134.679077,207.507019 135.746384,197.547928 
	C136.169342,193.601242 135.895264,189.583359 136.018005,185.600342 
	C136.447586,171.658325 144.953781,161.253311 158.595276,158.601868 
	C162.776474,157.789169 167.190933,158.004761 171.496170,158.040329 
	C178.756363,158.100266 184.949036,156.192383 188.728485,149.441864 
	C192.506241,142.694397 190.766342,136.452652 187.036331,130.172318 
	C203.384277,118.990898 221.758530,113.864784 240.618866,112.348839 
	C262.071747,110.624496 283.844177,110.717163 304.336823,119.378021 
	C312.040955,122.634026 319.480408,126.516235 326.892426,130.434021 
	C318.447418,138.629532 324.392487,156.630035 337.211151,157.540512 
	C341.517487,157.846390 345.843933,157.883499 350.162323,158.002121 
	C364.204651,158.387802 374.568481,166.746384 377.353424,180.436462 
	C378.137939,184.293198 377.947113,188.375153 377.970123,192.355133 
	C378.046844,205.628983 382.199615,210.750854 395.006012,213.515854 
	C396.081604,218.591278 397.270721,223.248108 398.192841,227.957230 
	C401.078674,242.694763 402.524078,257.532990 400.136353,272.482025 
	C398.619446,281.978912 396.723541,291.415253 394.598206,300.951965 
	C383.058136,302.827454 378.173584,308.444855 378.001007,319.687378 
	C377.962708,322.181061 378.015411,324.675995 377.990601,327.170013 
	C377.819580,344.378418 366.380035,355.799042 349.203400,356.015686 
	C344.897949,356.069946 340.511475,355.909058 336.309692,356.665833 
	C327.924347,358.176117 322.317078,365.866882 323.160339,373.898834 
	C324.081085,382.668304 330.382507,388.725677 338.994934,389.120056 
M284.944977,370.512604 
	C289.516357,369.029633 294.299103,367.996674 298.614929,365.969574 
	C307.471283,361.809753 316.873566,358.183594 324.610168,352.407654 
	C338.060791,342.365753 349.946411,330.513336 358.143250,315.400299 
	C367.822968,297.553192 374.216125,278.718536 373.765106,258.357208 
	C373.513763,247.008560 372.147339,235.355148 369.069763,224.464630 
	C361.859131,198.948517 347.318024,177.886322 325.557922,162.485519 
	C299.001251,143.689941 269.645294,136.170593 237.170670,141.987961 
	C212.291412,146.444717 190.944916,157.471558 173.227982,175.363892 
	C163.071808,185.620605 155.312317,197.633987 149.574066,210.889984 
	C140.552475,231.730789 137.720108,253.585236 141.631256,275.791534 
	C147.298309,307.967407 163.432449,333.969269 190.453384,352.931091 
	C209.410675,366.234344 230.608353,373.031982 253.491440,373.760651 
	C263.664032,374.084564 273.919220,371.814850 284.944977,370.512604 
z"/>
<path fill="#1561C7" opacity="1.000000" stroke="none" 
	d="
M327.040527,130.112961 
	C319.480408,126.516235 312.040955,122.634026 304.336823,119.378021 
	C283.844177,110.717163 262.071747,110.624496 240.618866,112.348839 
	C221.758530,113.864784 203.384277,118.990898 186.726868,130.006012 
	C182.592773,126.115402 177.794083,124.691757 172.765839,125.095459 
	C162.820160,125.893974 152.919449,127.252594 143.000137,128.379639 
	C148.086853,123.552597 152.673325,118.011848 158.353012,114.030731 
	C176.237335,101.494881 195.979492,92.733696 217.281433,87.804123 
	C239.189240,82.734352 261.202271,81.418556 283.594604,85.266685 
	C309.789429,89.768250 333.884369,99.070747 355.825287,113.985626 
	C360.496887,117.161263 365.006989,120.592484 369.414276,124.126938 
	C370.595581,125.074272 371.123566,126.836205 371.580841,128.595337 
	C364.052368,127.643303 356.938721,125.656517 349.724762,125.176147 
	C341.888031,124.654305 333.518524,123.583633 327.040527,130.112961 
z"/>
<path fill="#FDFEFF" opacity="1.000000" stroke="none" 
	d="
M142.734863,128.587677 
	C152.919449,127.252594 162.820160,125.893974 172.765839,125.095459 
	C177.794083,124.691757 182.592773,126.115402 186.501221,130.293457 
	C190.766342,136.452652 192.506241,142.694397 188.728485,149.441864 
	C184.949036,156.192383 178.756363,158.100266 171.496170,158.040329 
	C167.190933,158.004761 162.776474,157.789169 158.595276,158.601868 
	C144.953781,161.253311 136.447586,171.658325 136.018005,185.600342 
	C135.895264,189.583359 136.169342,193.601242 135.746384,197.547928 
	C134.679077,207.507019 127.976410,213.058273 117.077423,212.654510 
	C106.329475,209.368118 103.090446,205.159561 103.022591,194.873383 
	C102.983521,188.952927 103.213463,183.030701 103.322319,177.109268 
	C105.982880,164.964188 110.429115,153.733566 119.176529,144.498001 
	C125.802345,137.502426 133.539749,132.300934 142.734863,128.587677 
z"/>
<path fill="#FDFEFF" opacity="1.000000" stroke="none" 
	d="
M116.999840,301.029053 
	C130.092072,301.462830 136.022385,307.524719 135.978180,320.674042 
	C135.954620,327.679871 135.637833,334.740417 139.102921,341.135498 
	C144.405457,350.921692 152.909180,355.612030 163.900055,355.979248 
	C167.561844,356.101654 171.250229,355.814087 174.890030,356.131622 
	C183.903488,356.917969 189.944702,362.708588 190.837967,371.089783 
	C191.698059,379.159760 186.530838,386.035522 177.710983,388.502380 
	C176.764572,388.767090 175.761902,388.830658 174.395828,389.077820 
	C166.741425,388.727722 159.336319,389.037811 152.236923,387.711517 
	C127.135231,383.022156 109.166679,364.565674 104.077057,339.086853 
	C103.915192,338.276581 103.712067,337.474518 103.450363,335.877472 
	C103.256783,328.173676 102.783897,321.238922 103.209663,314.359802 
	C103.369057,311.784393 105.074791,308.718353 107.048294,306.981110 
	C109.901253,304.469727 113.639374,302.963898 116.999840,301.029053 
z"/>
<path fill="#FDFEFF" opacity="1.000000" stroke="none" 
	d="
M339.461029,389.066589 
	C330.382507,388.725677 324.081085,382.668304 323.160339,373.898834 
	C322.317078,365.866882 327.924347,358.176117 336.309692,356.665833 
	C340.511475,355.909058 344.897949,356.069946 349.203400,356.015686 
	C366.380035,355.799042 377.819580,344.378418 377.990601,327.170013 
	C378.015411,324.675995 377.962708,322.181061 378.001007,319.687378 
	C378.173584,308.444855 383.058136,302.827454 394.962128,301.110321 
	C404.247040,302.579224 408.543793,306.160278 410.125580,314.837891 
	C411.144714,320.428894 410.794586,326.269501 411.058105,331.998230 
	C409.730652,342.101471 407.304504,351.781128 401.622894,360.506622 
	C390.107574,378.191284 373.838013,387.518677 352.893311,388.823669 
	C348.584045,389.092163 344.249847,388.960388 339.461029,389.066589 
z"/>
<path fill="#FDFEFF" opacity="1.000000" stroke="none" 
	d="
M326.892426,130.434021 
	C333.518524,123.583633 341.888031,124.654305 349.724762,125.176147 
	C356.938721,125.656517 364.052368,127.643303 371.604736,128.953949 
	C395.759491,139.270660 408.928406,157.195938 410.954590,184.044846 
	C411.017303,187.584122 411.010590,190.240494 411.005676,192.896881 
	C410.987823,202.514725 406.332642,211.783554 394.997375,213.121185 
	C382.199615,210.750854 378.046844,205.628983 377.970123,192.355133 
	C377.947113,188.375153 378.137939,184.293198 377.353424,180.436462 
	C374.568481,166.746384 364.204651,158.387802 350.162323,158.002121 
	C345.843933,157.883499 341.517487,157.846390 337.211151,157.540512 
	C324.392487,156.630035 318.447418,138.629532 326.892426,130.434021 
z"/>
<path fill="#1561C7" opacity="1.000000" stroke="none" 
	d="
M116.998154,300.613342 
	C113.639374,302.963898 109.901253,304.469727 107.048294,306.981110 
	C105.074791,308.718353 103.369057,311.784393 103.209663,314.359802 
	C102.783897,321.238922 103.256783,328.173676 103.265884,335.546021 
	C101.704010,334.502594 99.716354,333.249359 98.875504,331.457886 
	C89.958458,312.459930 84.967094,292.453674 82.877258,271.546661 
	C80.569725,248.461914 83.833351,226.094620 90.338753,204.122650 
	C92.781342,195.872803 96.672058,188.045441 100.035820,180.081757 
	C100.505051,178.970856 101.740593,178.183640 102.971863,177.177917 
	C103.213463,183.030701 102.983521,188.952927 103.022591,194.873383 
	C103.090446,205.159561 106.329475,209.368118 116.658524,212.706131 
	C115.556496,220.989044 114.042053,229.124252 112.693672,237.286880 
	C109.484016,256.717072 110.948692,275.883881 116.079399,294.836182 
	C116.551056,296.578430 116.698486,298.408417 116.998154,300.613342 
z"/>
<path fill="#1561C7" opacity="1.000000" stroke="none" 
	d="
M395.006012,213.515854 
	C406.332642,211.783554 410.987823,202.514725 411.005676,192.896881 
	C411.010590,190.240494 411.017303,187.584122 411.072174,184.464996 
	C412.602936,185.436600 414.768066,186.599533 415.462006,188.346771 
	C423.349304,208.205963 428.534912,228.535049 429.225311,250.184814 
	C430.006378,274.676666 426.339691,298.095947 417.199554,320.719543 
	C415.664673,324.518768 413.539795,328.079651 411.372803,331.874451 
	C410.794586,326.269501 411.144714,320.428894 410.125580,314.837891 
	C408.543793,306.160278 404.247040,302.579224 395.361572,301.037109 
	C396.723541,291.415253 398.619446,281.978912 400.136353,272.482025 
	C402.524078,257.532990 401.078674,242.694763 398.192841,227.957230 
	C397.270721,223.248108 396.081604,218.591278 395.006012,213.515854 
z"/>
<path fill="#0E5CBF" opacity="1.000000" stroke="none" 
	d="
M284.540955,370.617493 
	C273.919220,371.814850 263.664032,374.084564 253.491440,373.760651 
	C230.608353,373.031982 209.410675,366.234344 190.453384,352.931091 
	C163.432449,333.969269 147.298309,307.967407 141.631256,275.791534 
	C137.720108,253.585236 140.552475,231.730789 149.574066,210.889984 
	C155.312317,197.633987 163.071808,185.620605 173.227982,175.363892 
	C190.944916,157.471558 212.291412,146.444717 237.170670,141.987961 
	C269.645294,136.170593 299.001251,143.689941 325.557922,162.485519 
	C347.318024,177.886322 361.859131,198.948517 369.069763,224.464630 
	C372.147339,235.355148 373.513763,247.008560 373.765106,258.357208 
	C374.216125,278.718536 367.822968,297.553192 358.143250,315.400299 
	C349.946411,330.513336 338.060791,342.365753 324.610168,352.407654 
	C316.873566,358.183594 307.471283,361.809753 298.614929,365.969574 
	C294.299103,367.996674 289.516357,369.029633 284.540955,370.617493 
M315.830963,195.844742 
	C311.677948,192.534180 307.848145,188.675919 303.318909,186.002884 
	C276.145142,169.965927 248.006897,166.825104 219.292084,181.537476 
	C211.563248,185.497421 204.752853,191.249954 196.924652,195.877151 
	C194.053665,194.413925 191.330475,192.285522 188.284744,191.608765 
	C178.008545,189.325394 169.129883,197.122055 169.063858,208.753632 
	C168.880890,240.994614 168.865173,273.238647 169.176636,305.477692 
	C169.215256,309.475037 170.791336,314.047577 173.117050,317.311981 
	C178.228897,324.487091 185.562500,323.998779 193.068497,321.807281 
	C193.566010,322.636230 193.910934,323.623688 194.583374,324.270874 
	C211.295959,340.356232 231.641525,347.834351 254.463882,348.938995 
	C270.257416,349.703400 285.221558,345.586792 299.196594,338.679535 
	C307.421021,334.614594 315.614624,329.884949 321.873444,322.012665 
	C333.976501,326.193756 344.772827,317.813538 344.902435,304.352997 
	C345.208466,272.561340 345.116791,240.763718 344.842957,208.971466 
	C344.811127,205.277222 343.497162,200.917511 341.262085,198.045990 
	C334.625336,189.519379 325.239899,189.116333 315.830963,195.844742 
z"/>
<path fill="#FEFEFF" opacity="1.000000" stroke="none" 
	d="
M193.003281,321.120789 
	C185.562500,323.998779 178.228897,324.487091 173.117050,317.311981 
	C170.791336,314.047577 169.215256,309.475037 169.176636,305.477692 
	C168.865173,273.238647 168.880890,240.994614 169.063858,208.753632 
	C169.129883,197.122055 178.008545,189.325394 188.284744,191.608765 
	C191.330475,192.285522 194.053665,194.413925 197.401794,196.345917 
	C199.252441,200.940857 201.393692,204.988602 201.825134,209.211029 
	C202.527191,216.081635 202.111298,223.066467 202.097015,230.466919 
	C202.073685,248.619537 202.120529,266.308350 202.093567,284.460876 
	C202.013092,290.700378 201.823624,296.483185 202.044098,302.250305 
	C202.348221,310.205811 200.280106,316.870911 193.003281,321.120789 
z"/>
<path fill="#FEFEFF" opacity="1.000000" stroke="none" 
	d="
M316.480865,196.178879 
	C325.239899,189.116333 334.625336,189.519379 341.262085,198.045990 
	C343.497162,200.917511 344.811127,205.277222 344.842957,208.971466 
	C345.116791,240.763718 345.208466,272.561340 344.902435,304.352997 
	C344.772827,317.813538 333.976501,326.193756 321.371704,321.623444 
	C314.675781,317.292236 311.840729,311.622192 311.976196,304.315674 
	C312.052277,300.211731 311.887573,296.103302 311.901672,291.533112 
	C311.925171,268.047302 311.878357,245.025284 311.905457,221.539948 
	C311.986389,218.291870 312.053192,215.505737 311.988159,212.722687 
	C311.848663,206.754105 312.227997,200.946075 316.480865,196.178879 
z"/>
<path fill="#0C59BB" opacity="1.000000" stroke="none" 
	d="
M311.831360,291.996918 
	C311.887573,296.103302 312.052277,300.211731 311.976196,304.315674 
	C311.840729,311.622192 314.675781,317.292236 320.955994,321.561127 
	C315.614624,329.884949 307.421021,334.614594 299.196594,338.679535 
	C285.221558,345.586792 270.257416,349.703400 254.463882,348.938995 
	C231.641525,347.834351 211.295959,340.356232 194.583374,324.270874 
	C193.910934,323.623688 193.566010,322.636230 193.035889,321.464050 
	C200.280106,316.870911 202.348221,310.205811 202.044098,302.250305 
	C201.823624,296.483185 202.013092,290.700378 202.400299,284.576538 
	C203.662643,285.193207 204.752853,286.036835 205.394104,287.141174 
	C212.027847,298.565613 221.697723,306.522858 233.663284,311.753784 
	C236.304749,312.908539 239.303101,313.246979 242.411652,314.168030 
	C243.245224,315.304626 243.641510,316.398651 244.388428,317.138977 
	C251.962494,324.646057 259.971741,324.906433 269.499878,318.012817 
	C272.860291,317.535553 275.920074,317.450226 278.701477,316.526642 
	C290.254578,312.690338 299.217438,305.178345 307.019440,296.060547 
	C308.366577,294.486206 310.214691,293.340576 311.831360,291.996918 
z"/>
<path fill="#0C59BB" opacity="1.000000" stroke="none" 
	d="
M316.155914,196.011810 
	C312.227997,200.946075 311.848663,206.754105 311.988159,212.722687 
	C312.053192,215.505737 311.986389,218.291870 311.554138,221.513321 
	C309.651215,220.970825 307.974548,220.192596 306.738403,218.969284 
	C304.384644,216.639999 302.470581,213.852234 300.041870,211.615417 
	C291.528900,203.775070 282.472717,196.914230 269.754883,196.850189 
	C268.021973,195.584702 266.733368,194.219055 265.168152,193.353470 
	C256.501862,188.560760 248.517563,191.156555 240.692047,201.030426 
	C237.572388,201.651703 234.651566,201.814468 232.221024,202.990479 
	C221.772751,208.045807 212.637985,214.680374 206.806396,225.152054 
	C205.753006,227.043625 203.738174,228.399765 202.167206,230.003098 
	C202.111298,223.066467 202.527191,216.081635 201.825134,209.211029 
	C201.393692,204.988602 199.252441,200.940857 197.699905,196.497162 
	C204.752853,191.249954 211.563248,185.497421 219.292084,181.537476 
	C248.006897,166.825104 276.145142,169.965927 303.318909,186.002884 
	C307.848145,188.675919 311.677948,192.534180 316.155914,196.011810 
z"/>
<path fill="#0856B7" opacity="1.000000" stroke="none" 
	d="
M202.097015,230.466919 
	C203.738174,228.399765 205.753006,227.043625 206.806396,225.152054 
	C212.637985,214.680374 221.772751,208.045807 232.221024,202.990479 
	C234.651566,201.814468 237.572388,201.651703 240.638275,201.495483 
	C240.836151,204.781509 240.516388,207.594604 240.513092,210.408066 
	C240.477097,241.177399 240.434402,271.947052 240.563202,302.715881 
	C240.578888,306.466492 241.588257,310.212952 242.137115,313.961334 
	C239.303101,313.246979 236.304749,312.908539 233.663284,311.753784 
	C221.697723,306.522858 212.027847,298.565613 205.394104,287.141174 
	C204.752853,286.036835 203.662643,285.193207 202.474106,284.112854 
	C202.120529,266.308350 202.073685,248.619537 202.097015,230.466919 
z"/>
<path fill="#0856B7" opacity="1.000000" stroke="none" 
	d="
M270.071533,196.980865 
	C282.472717,196.914230 291.528900,203.775070 300.041870,211.615417 
	C302.470581,213.852234 304.384644,216.639999 306.738403,218.969284 
	C307.974548,220.192596 309.651215,220.970825 311.480255,221.976654 
	C311.878357,245.025284 311.925171,268.047302 311.901672,291.533112 
	C310.214691,293.340576 308.366577,294.486206 307.019440,296.060547 
	C299.217438,305.178345 290.254578,312.690338 278.701477,316.526642 
	C275.920074,317.450226 272.860291,317.535553 269.643677,317.683350 
	C270.742279,312.725464 273.268707,308.104126 273.323792,303.453491 
	C273.683960,273.052795 273.666565,242.644150 273.354767,212.242401 
	C273.302490,207.144531 271.217346,202.067520 270.071533,196.980865 
z"/>
<path fill="#FDFEFF" opacity="1.000000" stroke="none" 
	d="
M269.754883,196.850189 
	C271.217346,202.067520 273.302490,207.144531 273.354767,212.242401 
	C273.666565,242.644150 273.683960,273.052795 273.323792,303.453491 
	C273.268707,308.104126 270.742279,312.725464 269.215027,317.689819 
	C259.971741,324.906433 251.962494,324.646057 244.388428,317.138977 
	C243.641510,316.398651 243.245224,315.304626 242.411652,314.168030 
	C241.588257,310.212952 240.578888,306.466492 240.563202,302.715881 
	C240.434402,271.947052 240.477097,241.177399 240.513092,210.408066 
	C240.516388,207.594604 240.836151,204.781509 241.062714,201.503174 
	C248.517563,191.156555 256.501862,188.560760 265.168152,193.353470 
	C266.733368,194.219055 268.021973,195.584702 269.754883,196.850189 
z"/>
</svg>